<?xml version="1.0" encoding="utf-8"?>
<!-- Generator: Adobe Illustrator 25.3.1, SVG Export Plug-In . SVG Version: 6.00 Build 0)  -->
<svg version="1.1" id="Layer_1" xmlns="http://www.w3.org/2000/svg" xmlns:xlink="http://www.w3.org/1999/xlink" x="0px" y="0px"
	 viewBox="0 0 512 512" style="enable-background:new 0 0 512 512;" xml:space="preserve">
<style type="text/css">
	.st0{fill:#FF005F;}
	.st1{fill:#FFFFFF;stroke:#FFFFFF;stroke-miterlimit:10;}
</style>
<circle class="st0" cx="257" cy="256" r="254"/>
<g>
	<circle class="st1" cx="254.6" cy="397.3" r="27.7"/>
	<path class="st1" d="M256,87c-57.3,0-103.9,46.6-103.9,103.9c0,15.3,12.4,27.7,27.7,27.7c15.3,0,27.7-12.4,27.7-27.7
		c0-26.7,21.7-48.5,48.5-48.5c26.7,0,48.5,21.7,48.5,48.5c0,0.3,0,0.5,0,0.8c-0.3,19.2-11.8,36.3-29.5,43.8
		c-28.4,12.1-46.7,40.1-46.7,71.3v1.8c0,15.3,12.4,27.7,27.7,27.7c15.3,0,27.7-12.4,27.7-27.7v-1.8c0-9,5.1-17,13.1-20.4
		c38.4-16.4,63.1-53.9,63.1-95.6c0-0.4,0-0.8,0-1.2C359.2,133,312.9,87,256,87z"/>
</g>
<path d="M69,51.8c3.7-2.1,3.6-2.3,2.6-1.8c-0.8,0.6-1.6,1.2-2.5,1.7C69.1,51.7,69.1,51.8,69,51.8z"/>
</svg>
